<svg width="18" height="23" viewBox="0 0 18 23" fill="none" xmlns="http://www.w3.org/2000/svg">
<path d="M5.46802 7.395L5.46602 7.396L5.46302 7.398L5.46802 7.395ZM15.422 7.208C15.3525 7.14088 15.2753 7.08214 15.192 7.033C15.0742 6.96362 14.9434 6.91914 14.8076 6.90233C14.6719 6.88551 14.5342 6.89671 14.403 6.93523C14.2718 6.97375 14.1499 7.03878 14.0448 7.12629C13.9397 7.21379 13.8537 7.32193 13.792 7.444C13.4476 8.12292 12.9725 8.72714 12.394 9.222C12.4827 8.72355 12.5276 8.21828 12.528 7.712C12.5299 6.17214 12.1238 4.65927 11.3509 3.32742C10.578 1.99558 9.46594 0.892329 8.12802 0.129997C7.98058 0.0462261 7.81427 0.00132255 7.6447 -0.000492046C7.47514 -0.00230665 7.3079 0.0390273 7.15871 0.119624C7.00951 0.200221 6.88326 0.317434 6.79183 0.460243C6.70039 0.603052 6.64678 0.766767 6.63602 0.935997C6.58003 1.8841 6.33216 2.81096 5.90742 3.66045C5.48267 4.50993 4.8899 5.26435 4.16502 5.878L3.93502 6.065C3.17663 6.57524 2.50537 7.2043 1.94702 7.928C1.07929 9.02111 0.478207 10.3014 0.191434 11.6672C-0.0953389 13.0331 -0.0599101 14.447 0.294911 15.7968C0.649732 17.1466 1.31418 18.3952 2.23557 19.4434C3.15695 20.4917 4.30991 21.3109 5.60302 21.836C5.75484 21.8978 5.91952 21.9213 6.08257 21.9045C6.24562 21.8877 6.40203 21.8311 6.53805 21.7396C6.67407 21.6481 6.78552 21.5246 6.86259 21.38C6.93966 21.2353 6.97998 21.0739 6.98002 20.91C6.97918 20.8041 6.96233 20.6989 6.93002 20.598C6.70628 19.757 6.64184 18.8817 6.74002 18.017C7.68649 19.8016 9.20556 21.216 11.053 22.033C11.2784 22.1338 11.5332 22.1473 11.768 22.071C13.2275 21.5998 14.5423 20.7634 15.5874 19.641C16.6326 18.5187 17.3734 17.1477 17.7396 15.6584C18.1057 14.1691 18.085 12.6109 17.6793 11.1319C17.2737 9.6529 16.4967 8.30215 15.422 7.208ZM11.517 20.039C10.6453 19.5973 9.87632 18.9771 9.26004 18.2187C8.64377 17.4603 8.19401 16.5806 7.94002 15.637C7.86236 15.3192 7.80227 14.9974 7.76002 14.673C7.73156 14.4664 7.63925 14.2739 7.49598 14.1224C7.35272 13.9709 7.16567 13.868 6.96102 13.828C6.89809 13.8158 6.83412 13.8097 6.77002 13.81C6.59432 13.8098 6.42167 13.856 6.26946 13.9437C6.11726 14.0315 5.99087 14.1578 5.90302 14.31C5.07346 15.7413 4.65639 17.3742 4.69802 19.028C3.96817 18.4607 3.35819 17.7542 2.90343 16.9494C2.44867 16.1446 2.15818 15.2575 2.04879 14.3396C1.9394 13.4217 2.0133 12.4913 2.26619 11.6021C2.51908 10.713 2.94594 9.88293 3.52202 9.16C3.95944 8.59184 4.48711 8.09929 5.08402 7.702C5.11014 7.68524 5.13519 7.66688 5.15902 7.647C5.15902 7.647 5.45502 7.402 5.46502 7.397C6.89022 6.19204 7.90398 4.57246 8.36502 2.764C9.45445 3.77136 10.1808 5.11026 10.4312 6.57276C10.6817 8.03527 10.4422 9.53955 9.75002 10.852C9.65841 11.0272 9.62079 11.2256 9.64189 11.4221C9.66299 11.6187 9.74187 11.8046 9.86858 11.9563C9.99528 12.1081 10.1641 12.2188 10.3537 12.2747C10.5434 12.3305 10.7453 12.3289 10.934 12.27C12.4657 11.7896 13.8136 10.8515 14.796 9.582C15.3867 10.4542 15.7729 11.4485 15.9259 12.4908C16.0788 13.5331 15.9946 14.5964 15.6794 15.6016C15.3642 16.6068 14.8262 17.5278 14.1055 18.2962C13.3848 19.0645 12.5 19.6602 11.517 20.039Z" fill="#9592FF"/>
</svg>
