<svg xmlns="http://www.w3.org/2000/svg" width="470.485" height="676.324" viewBox="0 0 470.485 676.324">
  <g id="Group_3" data-name="Group 3" transform="translate(-534 -951)">
    <g id="Group_2" data-name="Group 2" transform="translate(534 951)">
      <g id="Group_1" data-name="Group 1" transform="translate(0 0)">
        <path id="Path_1" data-name="Path 1" d="M21.564,16.527H177.481c7.714,0,13.932,13.245,13.932,29.371,0,16.266-6.252,29.439-13.932,29.439H21.564C13.85,75.337,7.63,62.092,7.63,45.9,7.63,29.771,13.85,16.527,21.564,16.527Z" transform="translate(279.072 600.987)" fill="#9592ff" fill-rule="evenodd"/>
        <path id="Path_2" data-name="Path 2" d="M21.564,13.788H177.481c7.714,0,13.932,13.245,13.932,29.367,0,16.269-6.252,29.443-13.932,29.443H21.564C13.85,72.6,7.63,59.353,7.63,43.155,7.63,27.032,13.85,13.788,21.564,13.788Z" transform="translate(279.072 500.809)" fill="#9592ff" fill-rule="evenodd"/>
        <path id="Path_3" data-name="Path 3" d="M21.564,11.048H177.481c7.714,0,13.932,13.245,13.932,29.371,0,16.269-6.252,29.443-13.932,29.443H21.564C13.85,69.862,7.63,56.614,7.63,40.42,7.63,24.293,13.85,11.048,21.564,11.048Z" transform="translate(279.072 400.626)" fill="#9592ff" fill-rule="evenodd"/>
        <path id="Path_4" data-name="Path 4" d="M21.564,8.309H177.481c7.714,0,13.932,13.245,13.932,29.369,0,16.269-6.252,29.442-13.932,29.442H21.564C13.85,67.12,7.63,53.875,7.63,37.679,7.63,21.554,13.85,8.309,21.564,8.309Z" transform="translate(279.072 300.448)" fill="#9592ff" fill-rule="evenodd"/>
        <path id="Path_5" data-name="Path 5" d="M21.564,5.57H177.481c7.714,0,13.932,13.245,13.932,29.369,0,16.268-6.252,29.442-13.932,29.442H21.564C13.85,64.381,7.63,51.136,7.63,34.939,7.63,18.815,13.85,5.57,21.564,5.57Z" transform="translate(279.072 200.268)" fill="#9592ff" fill-rule="evenodd"/>
        <path id="Path_6" data-name="Path 6" d="M21.564,2.831H177.481c7.714,0,13.932,13.245,13.932,29.369,0,16.269-6.252,29.441-13.932,29.441H21.564C13.85,61.642,7.63,48.4,7.63,32.2,7.63,16.076,13.85,2.831,21.564,2.831Z" transform="translate(279.072 100.088)" fill="#9592ff" fill-rule="evenodd"/>
        <path id="Path_7" data-name="Path 7" d="M21.564.092H177.481c7.714,0,13.932,13.245,13.932,29.369,0,16.268-6.252,29.441-13.932,29.441H21.564C13.85,58.9,7.63,45.658,7.63,29.461,7.63,13.337,13.85.092,21.564.092Z" transform="translate(279.072 -0.092)" fill="#9592ff" fill-rule="evenodd"/>
        <path id="Path_8" data-name="Path 8" d="M13.933,16.527H169.85c7.714,0,13.933,13.245,13.933,29.371,0,16.266-6.253,29.439-13.933,29.439H13.933C6.219,75.337,0,62.092,0,45.9,0,29.771,6.219,16.527,13.933,16.527Z" transform="translate(0 600.987)" fill="#9592ff" fill-rule="evenodd"/>
        <path id="Path_9" data-name="Path 9" d="M13.933,13.788H169.85c7.714,0,13.933,13.245,13.933,29.367,0,16.269-6.253,29.443-13.933,29.443H13.933C6.219,72.6,0,59.353,0,43.155,0,27.032,6.219,13.788,13.933,13.788Z" transform="translate(0 500.809)" fill="#9592ff" fill-rule="evenodd"/>
        <path id="Path_10" data-name="Path 10" d="M13.933,11.048H169.85c7.714,0,13.933,13.245,13.933,29.371,0,16.269-6.253,29.443-13.933,29.443H13.933C6.219,69.862,0,56.614,0,40.42,0,24.293,6.219,11.048,13.933,11.048Z" transform="translate(0 400.626)" fill="#9592ff" fill-rule="evenodd"/>
        <path id="Path_11" data-name="Path 11" d="M13.933,8.309H169.85c7.714,0,13.933,13.245,13.933,29.369,0,16.269-6.253,29.442-13.933,29.442H13.933C6.219,67.12,0,53.875,0,37.679,0,21.554,6.219,8.309,13.933,8.309Z" transform="translate(0 300.448)" fill="#9592ff" fill-rule="evenodd"/>
      </g>
    </g>
  </g>
</svg>
