<svg width="28" height="28" viewBox="0 0 28 28" fill="none" xmlns="http://www.w3.org/2000/svg">
<path d="M10.0001 9.66666C10.0001 9.11438 10.4478 8.66666 11.0001 8.66666C11.5524 8.66666 12.0001 9.11438 12.0001 9.66666V18.3333C12.0001 18.8856 11.5524 19.3333 11.0001 19.3333C10.4478 19.3333 10.0001 18.8856 10.0001 18.3333V9.66666Z" fill="white"/>
<path d="M17.0001 8.66666C16.4478 8.66666 16.0001 9.11438 16.0001 9.66666V18.3333C16.0001 18.8856 16.4478 19.3333 17.0001 19.3333C17.5524 19.3333 18.0001 18.8856 18.0001 18.3333V9.66666C18.0001 9.11438 17.5524 8.66666 17.0001 8.66666Z" fill="white"/>
<path fill-rule="evenodd" clip-rule="evenodd" d="M14.0001 27.3333C21.3639 27.3333 27.3334 21.3638 27.3334 14C27.3334 6.6362 21.3639 0.666664 14.0001 0.666664C6.63628 0.666664 0.666748 6.6362 0.666748 14C0.666748 21.3638 6.63628 27.3333 14.0001 27.3333ZM14.0001 25.3333C20.2593 25.3333 25.3334 20.2592 25.3334 14C25.3334 7.74077 20.2593 2.66666 14.0001 2.66666C7.74085 2.66666 2.66675 7.74077 2.66675 14C2.66675 20.2592 7.74085 25.3333 14.0001 25.3333Z" fill="white"/>
</svg>
