<svg width="28" height="28" viewBox="0 0 28 28" fill="none" xmlns="http://www.w3.org/2000/svg">
<path fill-rule="evenodd" clip-rule="evenodd" d="M11.2074 7.15883C10.8997 6.96101 10.5085 6.947 10.1875 7.12229C9.8664 7.29758 9.66666 7.6342 9.66666 8.00001V20C9.66666 20.3658 9.8664 20.7024 10.1875 20.8777C10.5085 21.053 10.8997 21.039 11.2074 20.8412L20.5407 14.8412C20.827 14.6572 21 14.3403 21 14C21 13.6597 20.827 13.3428 20.5407 13.1588L11.2074 7.15883ZM18.1507 14L11.6667 18.1683V9.83167L18.1507 14Z" fill="white"/>
<path fill-rule="evenodd" clip-rule="evenodd" d="M27.3333 14C27.3333 21.3638 21.3638 27.3333 14 27.3333C6.63619 27.3333 0.666656 21.3638 0.666656 14C0.666656 6.63621 6.63619 0.666672 14 0.666672C21.3638 0.666672 27.3333 6.63621 27.3333 14ZM25.3333 14C25.3333 20.2592 20.2592 25.3333 14 25.3333C7.74076 25.3333 2.66666 20.2592 2.66666 14C2.66666 7.74078 7.74076 2.66667 14 2.66667C20.2592 2.66667 25.3333 7.74078 25.3333 14Z" fill="white"/>
</svg>
